<svg>
    <path d="M1371.72 836.5c-51.36-31.34-35.21-9.4-13.34 11.17 91.86 86.43 152.46 171.44 175.03 244.86 14.74 47.95 1.63 77.07-20.4 35.13-33.45-63.69-77.42-112.47-104.17-133.93-26.56-21.31-26.11-11.1-13.3 6 52.29 69.78 83.33 140.12 52.24 194.51-51.03 89.3-257.01 66.67-459.17-50.06-257.4-148.61-416.3-351.91-358.19-455.95 25.35-45.39 94.33-64.17 175.79-57.36 17.32 1.45 16.37-4.02 1.01-8.05-97.23-25.54-211.8-1.71-252.55 69.07-74.3 129.07 98.57 368.28 386.47 534.5 60.99 35.21 140.59 74.51 234.67 105.96 56.96 19.04 48.79 41.98-49.1 23.01-104.12-20.17-233.69-74.22-356.11-146.17-35.38-20.79-40.01-12.54-13.78 13.15 24.29 23.79 70.55 60.18 126.43 93.46 285.82 170.22 642.4 214.6 744.81 36.86 91.65-159.04-72.84-404.17-256.34-516.16z"></path>
    <path d="M453.51 213.51l154.12 266.95h319.82v527.1c80.52 65.01 214.26 133.68 305.09 139.73V480.46h319.82l154.12-266.95H453.51z"></path>
</svg>